<?xml version="1.0" encoding="UTF-8" standalone="no"?>
<!-- Created with Inkscape (http://www.inkscape.org/) -->

<svg
   width="112.31561mm"
   height="65.463974mm"
   viewBox="0 0 112.31561 65.463974"
   version="1.1"
   id="svg5"
   xml:space="preserve"
   inkscape:version="1.2.1 (9c6d41e410, 2022-07-14)"
   sodipodi:docname="jingwei_icon.svg"
   xmlns:inkscape="http://www.inkscape.org/namespaces/inkscape"
   xmlns:sodipodi="http://sodipodi.sourceforge.net/DTD/sodipodi-0.dtd"
   xmlns="http://www.w3.org/2000/svg"
   xmlns:svg="http://www.w3.org/2000/svg"><sodipodi:namedview
     id="namedview7"
     pagecolor="#ffffff"
     bordercolor="#666666"
     borderopacity="1.0"
     inkscape:showpageshadow="2"
     inkscape:pageopacity="0.0"
     inkscape:pagecheckerboard="0"
     inkscape:deskcolor="#d1d1d1"
     inkscape:document-units="mm"
     showgrid="false"
     inkscape:zoom="0.84096521"
     inkscape:cx="141.50407"
     inkscape:cy="86.805018"
     inkscape:window-width="1920"
     inkscape:window-height="1129"
     inkscape:window-x="2872"
     inkscape:window-y="-8"
     inkscape:window-maximized="1"
     inkscape:current-layer="layer1" /><defs
     id="defs2" /><g
     inkscape:label="Warstwa 1"
     inkscape:groupmode="layer"
     id="layer1"
     transform="translate(-46.027104,-36.271844)"><path
       style="fill:#000000;stroke-width:0.264583"
       d="m 145.36049,101.5815 c -0.13581,-0.13244 -1.43756,-0.88833 -2.89277,-1.679748 -2.6337,-1.43236 -3.76892,-2.06402 -10.31875,-5.74159 -4.44334,-2.49483 -8.86354,-4.79257 -8.86354,-4.60751 0,0.17507 1.82404,2.31594 4.43177,5.20156 1.71423,1.89691 2.31764,2.79173 1.70936,2.53488 -0.44615,-0.18838 -4.9438,-3.31991 -6.26553,-4.36243 -0.7665,-0.60458 -1.91529,-1.42763 -2.55285,-1.82899 -0.63756,-0.40137 -1.57593,-1.05051 -2.08525,-1.44252 -4.55605,-3.50669 -12.65929,-9.37498 -13.3246,-9.64955 -0.81356,-0.33576 -11.894461,-4.14507 -13.067584,-4.49229 -0.543528,-0.16087 -0.595863,-0.0883 -0.601625,0.83382 -0.0061,0.97394 -0.232222,2.21079 -0.632127,3.45742 -0.185909,0.57953 -0.140999,0.59531 1.694558,0.59531 1.242595,0 1.827319,0.0942 1.714815,0.27622 -0.09389,0.15192 0.0078,0.54862 0.225925,0.88156 0.865743,1.32129 0.993346,1.30979 -13.885827,1.25202 -7.617264,-0.0296 -14.319183,-0.0931 -14.893151,-0.14127 -1.084414,-0.0909 -1.510565,-0.60091 -1.270193,-1.52008 0.267515,-1.02299 5.945652,-5.33951 9.288517,-7.06115 2.018546,-1.03958 2.682547,-1.63191 2.682547,-2.39299 0,-1.15997 -0.736254,-1.81046 -2.895126,-2.55787 -2.570708,-0.88999 -3.133043,-1.18826 -5.968415,-3.16578 -2.887417,-2.01382 -5.411099,-4.47147 -6.162527,-6.00128 -1.237787,-2.51997 -3.207497,-7.33369 -3.751574,-9.16836 -0.587974,-1.9827 -1.171523,-2.77317 -2.785898,-3.77375 -0.436563,-0.27058 -0.950523,-0.49241 -1.142133,-0.49295 -0.19161,-5.6e-4 -0.727392,-0.28084 -1.190625,-0.62287 -0.760182,-0.56129 -1.061361,-0.61239 -3.0912,-0.52454 -2.997798,0.12976 -3.439583,0.009 -3.439583,-0.94289 0,-0.41597 0.165784,-0.8939 0.368409,-1.06207 0.202625,-0.16816 0.515307,-0.66039 0.69485,-1.09385 0.235097,-0.56757 0.831287,-1.05338 2.130661,-1.73618 1.680742,-0.88321 1.809737,-1.01428 1.884837,-1.91511 0.07961,-0.95489 0.107164,-0.97622 2.197284,-1.7004 2.075873,-0.71925 2.205866,-0.73083 6.745012,-0.6009 2.633617,0.0754 4.665254,0.24321 4.713985,0.3894 0.0528,0.15839 0.321654,0.16718 0.701072,0.0229 0.736195,-0.2799 1.730555,-0.0669 1.730555,0.37064 0,0.21888 0.569015,0.29011 1.892101,0.23688 2.219529,-0.0893 2.895301,0.23134 4.8168,2.28558 1.216306,1.30033 1.499383,2.17471 1.067999,3.29887 -0.260501,0.67886 -1.846035,0.50655 -3.45276,-0.37523 -0.795475,-0.43656 -1.576003,-0.79375 -1.73451,-0.79375 -0.347297,0 -0.103738,4.36225 0.328668,5.88654 0.396939,1.39928 1.274067,2.30383 2.50566,2.584 0.582083,0.13241 4.237561,0.25237 8.123282,0.26657 l 7.064948,0.0258 2.327759,-1.97054 c 1.280269,-1.08381 3.734774,-3.30325 5.454457,-4.9321 1.719683,-1.62885 3.267495,-2.9077 3.439583,-2.84188 0.715674,0.27373 13.892204,3.94851 14.864964,4.14566 1.68765,0.34204 6.56399,1.5982 7.14375,1.84025 0.29104,0.12151 3.08901,0.85195 6.21771,1.62321 3.1287,0.77126 6.34812,1.61427 7.15427,1.87336 0.80616,0.25909 3.00881,0.77791 4.89479,1.15293 1.88598,0.37502 5.33406,1.20982 7.66239,1.85511 2.32834,0.64528 5.84068,1.58632 7.80521,2.0912 l 3.57188,0.91796 -1.85209,0.021 c -2.46907,0.0281 -3.04608,0.41162 -1.01916,0.67748 1.43714,0.18851 1.49133,0.21959 0.75458,0.43287 -0.43656,0.12638 -2.57969,0.33665 -4.7625,0.46727 -2.23889,0.13398 -5.41029,0.52987 -7.27604,0.90829 -1.81901,0.36894 -4.16656,0.80698 -5.21677,0.97343 -1.60816,0.25487 -2.08505,0.45844 -3.02215,1.29003 -1.12474,0.99813 -1.21062,1.61357 -0.22515,1.61357 1.05333,0 3.16946,0.58446 3.01587,0.83297 -0.0881,0.14255 -0.95212,0.23833 -1.92005,0.21286 -0.96793,-0.0255 -1.96755,0.0389 -2.22138,0.14311 -0.91723,0.37648 -0.10398,0.70683 1.61543,0.65618 2.98948,-0.0881 3.61821,-0.0291 3.28154,0.30754 -0.2032,0.2032 -2.42749,0.32916 -6.86593,0.38882 -3.61095,0.0485 -7.04162,0.13168 -7.6237,0.18478 -0.58208,0.0531 -1.35599,-0.0125 -1.71979,-0.14571 -0.81213,-0.29742 -8.60105,0.19523 -12.17083,0.76981 -4.73729,0.76251 -6.48932,0.89564 -11.244792,0.85447 -6.39033,-0.0553 -5.97994,-0.12269 -4.884798,0.80184 1.082847,0.91415 2.444538,1.54389 5.67855,2.62617 1.30968,0.4383 3.69093,1.29255 5.29166,1.89833 7.80185,2.95257 7.54722,2.83291 12.56771,5.90586 1.96385,1.20204 5.4193,3.80141 7.93537,5.9694 2.73679,2.35816 10.71702,9.58572 13.90257,12.5913 1.60613,1.5154 3.40994,3.11001 4.00848,3.543578 1.10038,0.79711 1.54985,1.29644 1.34837,1.49793 -0.0607,0.0606 -0.2214,0.002 -0.35723,-0.13052 z M 130.37096,90.164832 c -1.3501,-1.83156 -9.60241,-8.30975 -14.02364,-11.00876 -3.11909,-1.90409 -8.17545,-4.04063 -16.874387,-7.13016 -1.527969,-0.54268 -3.326818,-1.3083 -3.997441,-1.70138 -0.670626,-0.39308 -1.75659,-0.95235 -2.413251,-1.24283 -0.656664,-0.29047 -1.264992,-0.6431 -1.351841,-0.78363 -0.180933,-0.29275 0.728787,-2.93162 1.15751,-3.35764 0.187838,-0.18665 1.927008,-0.25584 5.098697,-0.20284 24.614463,3.44627 26.200703,-7.708855 43.037733,-8.03547 1.09617,-0.11689 3.15258,-0.22026 4.5698,-0.22973 1.76751,-0.0118 2.6156,-0.11841 2.70043,-0.33946 0.068,-0.17724 0.0396,-0.36991 -0.0632,-0.42814 -0.63775,-0.36136 -8.25468,-2.29231 -9.04237,-2.29231 -0.19979,0 -0.56318,-0.18093 -0.80752,-0.40205 -0.24435,-0.22113 -0.90857,-0.45074 -1.47605,-0.51025 -23.79175,1.293081 -3.20159,0.0034 -15.91726,-3.68685 -0.83527,-0.2401 -2.29259,-0.66817 -3.23847,-0.95126 -0.94589,-0.2831 -3.26761,-0.87887 -5.15938,-1.32394 -1.89177,-0.44507 -5.10646,-1.27967 -7.14375,-1.85466 -2.03729,-0.57498 -4.24595,-1.12056 -4.90813,-1.2124 -1.161508,-0.16107 -1.259489,-0.11899 -2.778125,1.19319 -0.865786,0.74808 -2.883845,2.47261 -4.484574,3.83229 -1.600729,1.35969 -3.260113,2.8434 -3.687521,3.29714 l -0.777105,0.825 h -8.255123 -8.254971 l -1.27963,-0.8599 c -2.327976,-1.56437 -3.159686,-3.49512 -3.56172,-8.26823 -0.190947,-2.26699 -0.347549,-2.98766 -0.708359,-3.25982 -0.25477,-0.19217 -0.437218,-0.44877 -0.405439,-0.57021 0.03178,-0.12145 -0.130305,-0.29299 -0.360188,-0.3812 -0.307774,-0.11811 -0.373801,-0.0453 -0.250444,0.27617 0.148265,0.38636 -0.03118,0.42061 -1.560613,0.29784 -0.950478,-0.0763 -1.875811,-0.25514 -2.056296,-0.39744 -0.509114,-0.40139 -2.540715,-0.63364 -3.069109,-0.35086 -0.270057,0.14453 -1.035092,0.16934 -1.777044,0.0576 -2.260059,-0.34029 -5.246938,0.66465 -5.965369,2.00705 -0.193186,0.36097 -0.486522,0.5601 -0.702812,0.4771 -0.400589,-0.15372 -1.910695,0.79493 -1.910695,1.20031 0,0.41659 0.68701,0.27439 1.405743,-0.29097 l 0.683356,-0.53752 0.287676,0.53752 c 0.175575,0.32807 0.554909,0.53753 0.973457,0.53753 0.780841,0 4.587267,1.77708 4.587267,2.14162 0,0.1318 0.161343,0.23963 0.358539,0.23963 0.506307,0 2.446259,2.86055 2.684349,3.9582 0.109218,0.50352 0.417518,1.42625 0.68511,2.05052 0.267591,0.62427 0.367508,1.13503 0.222041,1.13503 -0.170519,0 -0.175911,0.16552 -0.01519,0.46585 0.137123,0.25622 0.485569,1.13803 0.774325,1.95959 0.518194,1.47436 3.853478,6.83498 4.252602,6.83498 0.113163,0 0.970788,0.66434 1.905834,1.47631 0.958434,0.83228 2.610114,1.89994 3.786142,2.4474 7.155544,3.33099 7.907977,3.88373 7.907977,5.80925 0,2.28157 -2.11464,4.15058 -8.014266,7.08339 -2.032177,1.01023 -3.695922,1.91317 -3.697213,2.00653 -0.0048,0.34505 1.392701,0.39488 10.580986,0.37734 8.872487,-0.0169 9.440645,-0.0469 10.258223,-0.54131 3.8856,-6.095628 -5.450241,-10.331565 10.916348,-4.95627 2.396751,0.87553 4.862391,1.72672 5.479191,1.89155 0.61681,0.16483 1.887,0.82379 2.82265,1.46436 2.02151,1.38398 2.39055,1.49021 2.8787,0.82866 0.36189,-0.49042 0.41283,-0.48842 2.32052,0.091 2.79699,0.84956 4.43794,1.75546 8.24624,4.55241 5.08324,3.73331 6.47793,4.72154 6.66352,4.72154 0.093,0 0.77484,0.41672 1.51526,0.92604 1.66041,1.14216 2.01401,1.17315 1.22863,0.10768 z m -12.81199,-5.13136 c 0.21685,-0.56511 -1.30152,-1.94037 -3.58434,-3.2465 -2.75528,-1.57645 -4.66385,-1.85406 -3.11595,-0.45323 0.8522,0.77124 5.91245,4.08298 6.24688,4.08835 0.16633,0.003 0.37037,-0.17221 0.45341,-0.38862 z M 68.962008,39.869002 c -0.08446,-0.21107 -0.147156,-0.14838 -0.159851,0.15985 -0.01148,0.27891 0.05104,0.43518 0.138965,0.34727 0.08792,-0.0879 0.09732,-0.31613 0.02088,-0.50712 z"
       id="path125"
       sodipodi:nodetypes="csssssssssssssscccsssssssscscsssssscscssssssssscssssssssssccsssssssssccscscsssscssssccccssssssccsscssccssscssscccssssssssscsssscssssssssssscssccccssscsssccssscssssss" /></g></svg>
